<svg xmlns="http://www.w3.org/2000/svg" viewBox="0 0 120 80" width="120" height="80">
  <!-- Dove body -->
  <ellipse cx="60" cy="38" rx="12" ry="16" fill="#e8d5a3" opacity="0.85"/>
  <!-- Left wing -->
  <path d="M48,32 Q20,8 -2,2 Q15,18 28,28 Q38,34 44,35Z" fill="#d4c18a" opacity="0.75"/>
  <path d="M46,28 Q22,10 8,6 Q22,20 34,28Z" fill="#e8dbb0" opacity="0.5"/>
  <!-- Right wing -->
  <path d="M72,32 Q100,8 122,2 Q105,18 92,28 Q82,34 76,35Z" fill="#d4c18a" opacity="0.75"/>
  <path d="M74,28 Q98,10 112,6 Q98,20 86,28Z" fill="#e8dbb0" opacity="0.5"/>
  <!-- Head -->
  <circle cx="60" cy="22" r="6.5" fill="#f0e4c0" opacity="0.9"/>
  <!-- Tail -->
  <path d="M55,52 L60,68 L65,52" fill="#d4c18a" opacity="0.5"/>
</svg>
