<svg xmlns="http://www.w3.org/2000/svg" viewBox="0 0 220 260" width="220" height="260">
  <defs>
    <linearGradient id="flame" x1="0" y1="1" x2="0" y2="0">
      <stop offset="0%" stop-color="#c97a20"/>
      <stop offset="40%" stop-color="#daa540"/>
      <stop offset="100%" stop-color="#f0e0a0"/>
    </linearGradient>
    <linearGradient id="ray" x1="0" y1="0" x2="0" y2="1">
      <stop offset="0%" stop-color="#d4b860" stop-opacity="0.6"/>
      <stop offset="100%" stop-color="#d4b860" stop-opacity="0"/>
    </linearGradient>
    <radialGradient id="aura" cx="50%" cy="30%">
      <stop offset="0%" stop-color="#f0d878" stop-opacity="0.12"/>
      <stop offset="100%" stop-color="#f0d878" stop-opacity="0"/>
    </radialGradient>
  </defs>

  <!-- Aura -->
  <ellipse cx="110" cy="80" rx="100" ry="70" fill="url(#aura)"/>

  <!-- Rays -->
  <g opacity="0.35">
    <line x1="110" y1="65" x2="30" y2="160" stroke="url(#ray)" stroke-width="0.8"/>
    <line x1="110" y1="65" x2="50" y2="170" stroke="url(#ray)" stroke-width="0.8"/>
    <line x1="110" y1="65" x2="70" y2="178" stroke="url(#ray)" stroke-width="0.8"/>
    <line x1="110" y1="65" x2="90" y2="182" stroke="url(#ray)" stroke-width="0.8"/>
    <line x1="110" y1="65" x2="110" y2="185" stroke="url(#ray)" stroke-width="0.8"/>
    <line x1="110" y1="65" x2="130" y2="182" stroke="url(#ray)" stroke-width="0.8"/>
    <line x1="110" y1="65" x2="150" y2="178" stroke="url(#ray)" stroke-width="0.8"/>
    <line x1="110" y1="65" x2="170" y2="170" stroke="url(#ray)" stroke-width="0.8"/>
    <line x1="110" y1="65" x2="190" y2="160" stroke="url(#ray)" stroke-width="0.8"/>
  </g>

  <!-- Dove -->
  <g>
    <ellipse cx="110" cy="58" rx="12" ry="16" fill="#e8d5a3" opacity="0.85"/>
    <path d="M98,52 Q70,28 38,22 Q55,38 68,48 Q78,54 94,55Z" fill="#d4c18a" opacity="0.75"/>
    <path d="M96,48 Q72,30 48,26 Q62,40 74,48Z" fill="#e8dbb0" opacity="0.5"/>
    <path d="M122,52 Q150,28 182,22 Q165,38 152,48 Q142,54 126,55Z" fill="#d4c18a" opacity="0.75"/>
    <path d="M124,48 Q148,30 172,26 Q158,40 146,48Z" fill="#e8dbb0" opacity="0.5"/>
    <circle cx="110" cy="42" r="6.5" fill="#f0e4c0" opacity="0.9"/>
    <path d="M105,72 L110,85 L115,72" fill="#d4c18a" opacity="0.5"/>
  </g>

  <!-- Seven Flames -->
  <g>
    <path d="M35,168 Q32,155 36,148 Q30,156 28,150 Q26,140 35,128 Q44,140 42,150 Q40,156 34,148 Q38,155 35,168Z" fill="url(#flame)" opacity="0.85"/>
    <path d="M62,164 Q59,152 63,145 Q58,152 56,147 Q54,138 62,126 Q70,138 68,147 Q66,152 61,145 Q65,152 62,164Z" fill="url(#flame)" opacity="0.85"/>
    <path d="M86,161 Q83,149 87,143 Q82,149 80,145 Q78,136 86,124 Q94,136 92,145 Q90,149 85,143 Q89,149 86,161Z" fill="url(#flame)" opacity="0.85"/>
    <path d="M110,160 Q106,146 111,138 Q105,146 103,141 Q100,130 110,116 Q120,130 117,141 Q115,146 109,138 Q114,146 110,160Z" fill="url(#flame)" opacity="0.95"/>
    <path d="M134,161 Q131,149 135,143 Q130,149 128,145 Q126,136 134,124 Q142,136 140,145 Q138,149 133,143 Q137,149 134,161Z" fill="url(#flame)" opacity="0.85"/>
    <path d="M158,164 Q155,152 159,145 Q154,152 152,147 Q150,138 158,126 Q166,138 164,147 Q162,152 157,145 Q161,152 158,164Z" fill="url(#flame)" opacity="0.85"/>
    <path d="M185,168 Q182,155 186,148 Q180,156 178,150 Q176,140 185,128 Q194,140 192,150 Q190,156 184,148 Q188,155 185,168Z" fill="url(#flame)" opacity="0.85"/>
  </g>

  <!-- Seven People -->
  <g opacity="0.7">
    <circle cx="35" cy="182" r="7" fill="#3a2a15"/><path d="M24,210 Q24,190 35,188 Q46,190 46,210Z" fill="#3a2a15"/>
    <circle cx="62" cy="179" r="7.5" fill="#3a2a15"/><path d="M50,210 Q50,187 62,185 Q74,187 74,210Z" fill="#3a2a15"/>
    <circle cx="86" cy="177" r="7.5" fill="#3a2a15"/><path d="M74,210 Q74,185 86,183 Q98,185 98,210Z" fill="#3a2a15"/>
    <circle cx="110" cy="175" r="8" fill="#3a2a15"/><path d="M98,210 Q98,183 110,181 Q122,183 122,210Z" fill="#3a2a15"/>
    <circle cx="134" cy="177" r="7.5" fill="#3a2a15"/><path d="M122,210 Q122,185 134,183 Q146,185 146,210Z" fill="#3a2a15"/>
    <circle cx="158" cy="179" r="7.5" fill="#3a2a15"/><path d="M146,210 Q146,187 158,185 Q170,187 170,210Z" fill="#3a2a15"/>
    <circle cx="185" cy="182" r="7" fill="#3a2a15"/><path d="M174,210 Q174,190 185,188 Q196,190 196,210Z" fill="#3a2a15"/>
  </g>

  <!-- Knowledge Graph Edges -->
  <g stroke="#c9a84c" stroke-width="0.4" opacity="0.12">
    <line x1="35" y1="182" x2="62" y2="179"/>
    <line x1="62" y1="179" x2="86" y2="177"/>
    <line x1="86" y1="177" x2="110" y2="175"/>
    <line x1="110" y1="175" x2="134" y2="177"/>
    <line x1="134" y1="177" x2="158" y2="179"/>
    <line x1="158" y1="179" x2="185" y2="182"/>
    <line x1="35" y1="182" x2="110" y2="175"/>
    <line x1="185" y1="182" x2="110" y2="175"/>
    <line x1="62" y1="179" x2="134" y2="177"/>
    <line x1="86" y1="177" x2="158" y2="179"/>
  </g>
</svg>
